<?xml version="1.0"?><svg version="1.2" baseProfile="tiny-ps" viewBox="0 0 300 300" xmlns="http://www.w3.org/2000/svg" xmlns:xlink="http://www.w3.org/1999/xlink"><title>AfonsoNet</title><g><g fill="#fbf9f9" transform="matrix(.1 0 0 -.1 0 300)"><path d="M0 1500V0h3000v3000H0V1500z"/></g><g fill="#d1cece" transform="matrix(.1 0 0 -.1 0 300)"><path d="M0 1500V0h3000v3000H0V1500zm2020 519v-381l85-98c47-54 85-102 85-107 0-6-9-22-21-37l-20-26h-729c-401 0-736 3-745 6-8 4-22 19-30 34l-14 28 89 102 90 103v757h1210v-381zm-498-830c20-11 22-18 9-38l-8-13-21 11c-11 6-34 11-51 11h-30l-6-10-7-11 12-14c7-8 30-20 52-27l39-12 20-24c25-33 24-48-7-79l-25-25-64 4-63 4-16 13-16 13 11 19 10 19 30-16 30-15 32 3 32 3v40l-46 15c-26 8-54 21-63 29l-17 14 3 36 3 36 35 18 35 18 35-7c19-3 43-10 52-15zm-1165-92c24-56 45-110 49-119l6-18h-51l-11 20-11 20H218l-5-20-5-20h-55l51 120 51 120h60l42-103zm303 83v-20H540v-70h110v-40H540v-90h-60v240h180v-20zm281-18 29-32v-100l-28-31-27-31-35-7-35-7-34 7-33 7-28 27-28 27-6 33-7 34 14 34 15 34 28 22 29 23 59-4 59-4 28-32zm202-26c25-35 53-69 62-76l15-12v152h50V960h-48l-53 70c-30 39-57 70-61 70h-8V960h-50v240h46l47-64zm681 30 36-33v-105l-34-34-34-34-28-1c-96-4-146 27-160 99l-6 32 12 30c7 17 26 42 42 55l30 25h107l35-34zm221-44 60-77 3 78 3 77h49V960h-50l-52 70c-29 39-56 70-60 70h-8V960h-50v240h45l60-78zm395 58v-19l-67-3-68-3v-50l58-3 57-3v-38l-57-3-58-3-3-27-3-28h141v-40h-190v240h190v-20zm270 0v-20h-80V960h-60v200h-70v40h210v-20zM837 2373l-7-6v-717h1160l-2 363-3 362-571 3-571 2-6-7zm1113-358v-325h-15l3 320 3 320H879l3-320 3-320h-15v637l7 6 6 7h1067v-325zM747 1531l-77-89v-31l19-11 20-10h1409l23 19 24 19-15 19c-9 10-46 53-84 96l-68 77H824l-77-89zm1010-98c-191-2-503-2-695 0-191 1-34 2 348 2s539-1 347-2zM258 1096c-9-24-14-47-11-50 4-3 21-6 40-6h33v14c0 20-29 86-38 86-4 0-15-20-24-44zm537 39-25-24v-68l23-21 23-22h55l24 25 25 24v62l-25 24-24 25h-52l-24-25zm887 2-22-23v-71l23-21 23-22h55l24 25 25 24v58l-25 27-24 26h-58l-21-23z"/></g><g fill="#9e9c9c" transform="matrix(.1 0 0 -.1 0 300)"><path d="M0 1500V0h3000v3000H0V1500zm2020 527v-384l85-97 85-96v-19c0-10-9-29-19-42l-19-24-730-3-730-2-31 26-31 26v33l85 97 85 96v759l7 6 6 7h1207v-383zM366 1085c28-66 50-123 47-127-2-5-15-8-29-8h-24l-12 25-11 25H232l-16-25-16-25h-25c-14 0-25 3-25 8 0 11 92 225 103 240l10 13 26-3 26-3 51-120zm294 100v-24l-57-3-58-3v-60l53-3 52-3v-38l-52-3-53-3-5-45-5-45-27-3-28-3v124c0 68 3 127 7 130 3 4 44 7 90 7h83v-25zm263-1c15-11 34-34 43-53l16-34-5-33c-3-18-13-45-23-60l-18-27-33-13c-42-18-75-18-118 0l-35 15-20 33-20 33v70l19 31 18 30 34 17 34 18 41-4 42-4 25-19zm224-49c32-41 61-74 65-75h7l3 73 3 72h40l3-127 3-128h-19c-25 0-41 15-98 90l-49 65-5-75-5-75h-50l-3 114c-1 63 0 121 2 128l5 13h41l57-75zm362 64 31-11v-11c0-7-4-18-9-26l-9-14-32 12c-18 6-41 11-51 11h-19v-37l52-19 52-19 15-26 14-25-7-27-6-27-30-15c-37-19-79-19-130 1l-40 16v12c0 6 4 17 9 25l9 15 40-18 40-18 18 4 19 3 3 18 3 17-28 11c-15 6-42 17-60 24l-31 14-7 21-7 21 6 24 6 24 28 15c33 18 78 20 121 5zm290-9 38-19 18-37 17-37-5-33c-3-18-13-45-23-60l-18-27-33-13c-18-8-46-14-63-14h-31l-30 15-30 16-19 32-20 32v70l20 33 20 33 33 14c17 8 45 14 60 15h28l38-20zm203-7c13-16 40-49 58-75 18-27 37-48 41-48h8l3 73 3 72 23 3 22 3V950h-18c-25 0-41 15-98 90l-49 65-5-75-5-75h-50l-3 114c-1 63 0 121 2 128l5 13h37l26-27zm436 0 3-23h-132l3-27 3-28 58-3 57-3v-38l-57-3-58-3-3-27-3-28h131v-50h-190v261l93-3 92-3 3-22zm272-3v-30h-79l-3-97-3-98-27-3-28-3v201h-71l-5 15c-4 8-4 22 0 30l5 15h211v-30zm146-294 34-34v-72l-29-32-29-33h-90l-21 19c-11 10-25 34-31 52l-12 34 19 37 18 38 25 12c14 7 38 13 54 13h28l34-34zM835 2348c-3-13-4-174-3-358l3-335h1150l3 358 2 357H840l-5-22zm1120-338v-325l-542-3-543-2v660l543-2 542-3v-325zM885 2317c-3-7-4-147-3-312l3-300 528-3 527-2-2 312-3 313-523 3-523 2-4-13zm555-78v-11l-30 7-30 7v-21l-17 6-17 6 20 8c10 4 31 8 47 8l27 1v-11zm-100-19c0-5-6-10-14-10-7 0-19-7-26-15s-20-15-28-15h-16l34 25c36 27 50 31 50 15zm200 0c0-5-4-10-10-10-5 0-10 5-10 10 0 6 5 10 10 10 6 0 10-4 10-10zm-35-30 6-10h-15c-9 0-16 5-16 10 0 6 4 10 9 10 6 0 13-4 16-10zm-65-40v-9l-15 5-15 6 6 9 5 9 10-5c5-4 9-10 9-15zm-95-19 5-10-10-6-10-6v15c0 18 6 21 15 7zm-75-16c0-8-4-15-10-15h-9l5 15c4 8 8 15 10 15s4-7 4-15zm-45-5 6-10h-10c-6 0-11 5-11 10 0 6 2 10 4 10 3 0 8-4 11-10zm425-23v-8l-10 6c-5 3-10 14-10 23v17l10-15c5-8 10-19 10-23zm-65-17c-3-5-10-10-16-10-5 0-9 5-9 10 0 6 7 10 16 10h15l-6-10zm-95-36v-15l-10 6c-5 3-10 10-10 16 0 5 5 9 10 9 6 0 10-7 10-16zm-110-40v-15l-10 6c-5 3-10 10-10 16 0 5 5 9 10 9 6 0 10-7 10-16zm-90-34c0-5-4-10-10-10-5 0-10 5-10 10 0 6 5 10 10 10 6 0 10-4 10-10zm305-39-6-11-11 6-10 7 13 8c16 10 23 4 14-10zm49 4-6-15-10 6-10 7 13 8c19 12 19 11 13-6zm-114-16c0-5-7-9-15-9h-14l5 15 6 15 9-6c5-3 9-9 9-15zm-90-34v-14l-15 5-15 6 6 9c8 14 24 10 24-6zm-70-36c0-5-6-9-13-9h-14v28l14-5c7-3 13-9 13-14zm189-15c-18-13-36-24-41-24h-7l5 15c4 8 10 13 14 10 4-2 15 4 25 15l18 20 9-6 9-6-32-24zm-224-14 6-10-15 6c-18 7-21 14-7 14 6 0 13-4 16-10zm145-21c-14-4-36-7-49-8l-25-1 10 9c11 11 65 19 79 12l10-5-25-7zm-176-177-481-2-64-73c-35-39-70-80-78-89l-13-18 12-15 12-15h713c393 0 720 3 729 6s16 12 16 19c0 11-72 101-146 184-5 6-162 6-700 3zm806-172v-10H709l6 10 6 10h1389v-10zM261 1095l-12-35 6-10c7-12 35-13 51-2l12 7-15 38c-8 20-18 37-22 37s-13-16-20-35zm559 58c-8-3-23-15-32-27l-18-21v-56l25-24c27-28 42-30 79-14l25 12 11 26 11 27-10 26c-16 42-55 64-91 51zm880-6-25-12-9-26-9-26 7-26 6-27 25-16 25-16 24 6c14 3 32 13 40 22l16 15v78l-26 20c-31 24-40 25-74 8zm1028-266-32-28v-72l23-25 24-25 28-6 28-6 23 12c13 6 31 21 40 33l18 21v28c0 16-5 37-10 48-12 22-61 49-89 49h-21l-32-29zm89-27 6-17-11-17-10-17 9-14c17-27 9-31-12-5-11 14-25 26-30 26h-9v-50h-20v48c0 57 4 62 42 62h29l6-16zm-57-13v-21h51l-3 18-3 17-23 3-22 3v-20z"/></g><g fill="#666464" transform="matrix(.1 0 0 -.1 0 300)"><path d="M0 1500V0h3000v3000H0V1500zm2028 520 3-385 84-95c47-52 85-101 85-108 0-8-13-27-29-43l-29-29H679l-24 25-25 24v43l85 96 85 96v766l613-2 612-3 3-385zM369 1087c28-67 51-126 51-130s-13-7-30-7h-30l-16 25-16 25h-98l-12-25-11-25h-57v13c0 7 20 57 43 112 24 55 47 108 50 118l6 17h68l52-123zm296 93v-25l-62-3-63-3v-48l58-3 57-3v-50l-57-3-58-3v-89h-60v261l93-3 92-3v-25zm246 15 30-16 19-32 20-32v-70l-20-32-19-32-30-16-30-15h-83l-28 16c-15 9-35 29-44 44l-16 28v90l27 32c31 38 55 49 106 49l38 1 30-15zm241-57 53-72 5 69 5 70h60V955l-26-3-27-3-53 70c-30 39-57 70-61 71h-8V950h-60v260h58l54-72zm367 61c36-13 34-10 20-42l-11-24-40 14-41 14-14-5c-7-3-13-10-13-16v-11l48-20c26-11 55-28 65-36l17-16v-58l-25-24-24-25h-92l-34 14-35 15v18c0 11 5 24 10 29l11 11 39-19 39-20 21 7 20 6v26l-25 11c-14 7-32 12-39 12s-25 9-40 21l-26 20v68l26 20 27 21h42c23 0 56-5 74-11zm282-4 30-16 19-32 20-32v-70l-20-32-19-32-30-16-30-15h-87l-24 17c-34 23-48 42-59 81l-9 32 9 32c10 35 44 76 74 88 11 5 37 9 58 9l38 1 30-15zm241-57 53-72 5 69 5 70h60V955l-27-3-26-3-54 70c-29 38-56 70-60 70l-8 1V950h-60v260h58l54-72zm398 42v-30h-130v-40h120v-60h-120v-39l68-3 67-3v-50l-102-3-103-3v124c0 68 3 127 7 130 3 4 48 7 100 7h93v-30zm270 0v-30h-80V950h-60v200h-80v60h220v-30zm151-289 29-29v-94l-29-29-29-29h-36c-19 0-46 5-59 11-30 13-57 59-57 94v27l17 28c20 35 47 48 96 49l39 1 29-29zM842 2013l3-358 568-3 567-2v720H840l2-357zm1116 0 2-333H871l-3 8c-2 4-2 154 0 335l3 327 542-2 542-3 3-332zm-1068-3v-310h1040v620H890v-310zm635 221c51-23 93-65 116-116l19-40v-120l-19-41-18-40-42-36-42-36-44-12-45-13-50 5-50 5-47 29-47 30-30 47-29 47-5 50-5 50 13 45 12 44 34 39 34 40 42 21 43 21h120l40-19zm-56-11 24-21 10 10c14 14 9 18-28 26l-30 6 24-21zm-122 3c-4-3-7-24-7-45v-38h13c6 0 22 3 35 6l22 6v12c0 7-13 24-28 39l-28 27-7-7zm43 0c1-5 9-18 20-31l19-24 21 7 20 6v26l-25 11c-29 14-55 16-55 5zm125-22-5-10 35-55 35-54 20 5c11 3 23 9 26 14l5 9-20 34c-31 50-81 80-96 57zm-229-35c-21-44-20-46 8-46 31 0 35 7 29 48-7 41-17 41-37-2zm179 2c-11-6-21-12-23-14-6-4 40-104 48-104 4 0 21 5 39 11l31 11v12c0 16-57 96-68 96-4 0-16-6-27-12zm-219-20c-18-26-20-38-6-38 11 0 34 50 26 57-2 2-11-6-20-19zm127-18-23-9v-18c0-10 5-35 11-56l10-39 24 6c35 9 75 25 75 30 0 2-9 25-20 50l-19 46-18-1c-10 0-28-4-40-9zm-90-27-13-5v-46c0-26 4-53 9-61l9-13 31 7c17 3 33 10 36 15 2 4-2 31-11 59l-15 51-17-1c-9 0-23-3-29-6zm-60-11c-6-4-14-24-18-44l-7-36 7-31 7-31h12c7 0 19 6 28 13l16 12-10 63c-11 63-14 68-35 54zm372-21-6-11 7-60 7-60h37l5 23c4 13 5 43 3 68l-3 44-22 3-21 3-7-10zm-72-26-32-13 15-48c8-27 18-52 23-57l8-8 27 11 28 10-7 46c-12 81-12 81-62 59zm-110-40-32-14 15-38c9-21 21-44 28-51l13-13 37 15 37 15-7 28c-4 15-11 38-15 51l-9 22h-17c-10-1-33-7-50-15zm-98-39-19-13 13-31c7-16 23-40 35-51l23-22 23 19 23 18-21 47-21 47h-19c-10 0-27-6-37-14zm-77-27-18-10 15-29c16-32 71-77 87-72 6 1 16-5 22-14l12-16 25 4 24 3-31 14c-17 8-35 22-40 31-5 10-19 36-32 59l-22 41h-13c-6 0-20-5-29-11zm310-26-18-4v-79h8c5 0 17 16 28 35l18 35-9 8c-6 5-18 7-27 5zm49 0c-4-3-7-15-7-26v-19l15 12c8 7 15 19 15 26 0 15-12 19-23 7zm-129-25c-34-12-34-15-5-52l24-29 17 6 17 7-3 37-3 36-10 3c-5 1-22-2-37-8zm-77-37-14-9 7-10c7-12 75-36 82-30 7 8-36 58-49 58-7 0-18-4-26-9zm-638-326c-40-46-73-90-73-98v-15l16-6c9-3 334-6 724-6h708l12 15 13 15-75 88-75 87-589 2-589 2-72-84zm1357-90v-15l-697 2-696 3-5 13-4 12h1402v-15zM266 1096c-20-49-21-46 14-46h30v13c-1 6-7 26-14 42l-13 30-17-39zm529 34-18-20v-61l20-21 21-20h53l19 17 20 18v63l-16 22-15 22h-66l-18-20zm890 0-18-20v-61l20-21 21-20h56l18 22 18 22v54l-16 22-15 22h-66l-18-20zm1067-236-30-12-11-21c-6-11-11-34-11-51v-31l25-24 24-25h78l23 25 24 26v68l-23 25c-12 13-33 26-46 28l-23 5-30-13zm68-39 12-15-12-15-13-16 11-24 12-25h-10c-5 0-14 9-20 20l-11 20h-29v-40h-20v110h68l12-15zm-60-15v-20h19c11 0 23 5 27 11l7 11-14 9c-8 5-20 9-26 9h-13v-20z"/></g><g fill="#333232" transform="matrix(.1 0 0 -.1 0 300)"><path d="M0 1500V0h3000v3000H0V1500zm2014 914 16-6v-765l85-97 85-97v-40l-24-24-24-24-33-6c-19-3-350-5-737-3l-704 3-29 33c-16 18-29 38-29 45 0 6 38 56 85 109l85 96v758l12 12 12 12h592c326 0 599-3 608-6zm-470-1224 9-9-12-27-11-26-18 8c-9 4-34 9-56 12l-38 4 4-13 5-14 47-17c26-9 54-22 62-28l14-12v-37c0-47-8-57-54-76l-38-16-32 7c-25 5-82 29-94 39-5 4 21 55 27 55 3-1 17-7 31-15 28-16 76-20 84-6l6 9-13 9c-6 5-33 17-58 27l-46 17-11 24-11 24 10 29 10 29 22 11c12 6 31 13 42 14 27 5 107-10 119-22zm-1174-95c25-60 49-118 53-127l6-18h-78l-6 20-6 20H231l-11-20-11-20h-34c-19 0-35 2-35 4 0 6 98 235 106 248l6 9 36-3 35-3 47-110zm300 85v-30H550v-50h110v-60H551l-3-42-3-43-37-3-38-3v261h200v-30zm271-9 39-39v-93l-15-28-14-29-46-22-46-22-33 6c-19 4-49 17-67 29l-34 23-15 42-14 42 14 42 15 42 34 23 34 23h109l39-39zm213-33 56-71v143h70V950h-66l-50 67-49 68-5-65-5-65-32-3-33-3v261h59l55-72zm677 33 39-39v-95l-20-33-21-33-45-17-45-17-41 12-41 13-28 27-28 28-6 37-7 37 14 37 14 37 33 22 34 23h109l39-39zm211-31 53-71 3 71 3 70h69V950h-66l-50 67-49 68-5-65-5-65-32-3-33-3v261h60l52-70zm406 43-3-28-67-3-68-3v-39h120v-60h-120v-40h140v-60h-210v260h211l-3-27zm262-3v-30h-70V949l-37 3-38 3-3 98-3 97h-69v60h220v-30zm152-287 28-27V762l-31-26-31-26h-90l-29 29-29 29v94l29 29 29 29h96l28-27zM847 2363l-7-6v-697h1140v710H853l-6-7zm1111-350-3-338-525-3c-289-1-535 0-547 3l-23 5v657l7 6 6 7h1087l-2-337zm-1068 2v-305h1040v610H890v-305zm641 220c19-9 49-31 67-48l32-31 20-53c24-65 25-104 4-166l-16-47-43-43-43-43-43-13-44-13-47 1-48 1-37 15c-21 9-53 30-72 48l-34 32-20 45-20 45v56l1 55 26 52 26 51 33 25c19 14 51 33 73 41l39 15 56-4 56-4 34-17zm-121-35 21-30 20 10c26 15 24 19-16 36-47 19-49 18-25-16zm65 20c3-5 10-10 16-10 5 0 9 5 9 10 0 6-7 10-16 10h-15l6-10zm-135-41v-41l28 7c15 3 31 10 35 14l8 8-21 26c-12 15-28 27-36 27h-14v-41zm184 18-5-14 25-38c14-21 26-42 26-47v-9l22 3 23 3 3 16 3 16-27 32c-14 17-35 36-45 42l-19 10-6-14zm-221-8c-6-8-14-26-18-42l-7-27h8c5 0 15 4 22 9l13 8-3 33-3 33-12-14zm170-22-23-10v-14c0-8 9-32 20-53l20-40 28 12c15 7 30 15 35 18l7 6-32 46-33 45-22-10zm-226-24c-4-3-7-13-7-22l1-16 10 18c11 19 8 33-4 20zm130-16-29-11 5-26c3-14 10-37 16-52l10-26 37 11 36 11 5 14 6 13-18 40-18 39-11-1c-6-1-24-6-39-12zm-86-28-24-9 7-47c3-26 10-51 14-55l9-9 26 10c31 12 31 15 16 77-12 47-12 47-48 33zm-77-23c-3-7-4-38-2-67l3-54 20 3c28 5 27 3 19 71l-7 61h-14c-7 0-16-6-19-14zm389-4-12-7 6-63 6-62h35l7 40 7 40-7 30-7 30h-11c-7 0-17-4-24-8zm-87-35-17-13 13-47 12-47h56v38c0 20-3 47-6 60l-6 22h-17c-10 0-25-6-35-13zm-94-33-33-15 7-22c3-12 13-34 20-49l14-26 35 11 35 10v16c0 9-5 33-11 54l-10 37-12-1c-7 0-27-7-45-15zm-94-36c-35-12-35-18-2-68 29-43 40-47 68-27l18 13-23 47c-13 26-25 47-28 46-4 0-18-5-33-11zm-93-38-6-10 10-17c5-10 23-31 40-47l30-29 15 6 16 6-32 51-31 50h-18c-10 0-21-4-24-10zm362-31-5-20 14 12c16 13 19 29 5 29-5 0-11-9-14-21zm-62 0-7-10 6-25 7-25 8 6c5 3 14 18 19 35l11 30h-19c-10 0-22-5-25-11zm-72-16c-20-7-15-27 10-51 32-30 37-28 37 18v40l-17-1c-10 0-24-3-30-6zm-69-35-7-11 18-14c11-7 27-13 37-13h18l-16 25c-17 27-38 32-50 13zm-44-27c0-10 30-24 37-17 3 2-5 9-16 16l-21 11v-10zm-581-283c-35-40-70-81-78-91l-16-19 20-14 19-14h697c384 0 704 3 713 6l16 6v31l-67 76c-37 42-72 79-78 83l-10 8H832l-63-72zm1349-100-5-13-701-3-702-2v30h1412l-4-12zM271 1097c-6-16-11-33-11-38v-9h51l-7 23c-3 12-10 29-15 37l-8 15-10-28zm529 33-20-20v-56l16-22 15-22h59l20 20 20 20v47l-21 27-20 26h-49l-20-20zm890 0-20-20v-56l16-22 15-22h59l20 20 20 20v56l-20 22-21 22h-49l-20-20zm1042-250c-12-11-24-31-28-45l-6-24 7-21c4-11 16-30 28-40l21-20h67l24 25 25 24v72l-25 24-24 25h-67l-22-20zm95-26 6-17-12-20-13-19 11-11c13-13 15-37 3-37-5 0-15 11-22 25l-13 25h-27v-50h-20v120h81l6-16zm-67-19v-16l23 3 22 3v20l-22 3-23 3v-16z"/></g><g fill="#050505" transform="matrix(.1 0 0 -.1 0 300)"><path d="M0 1500V0h3000v3000H0V1500zm2028 532 2-384 75-83c40-46 81-95 90-109l16-25-10-20c-6-10-23-29-37-40l-27-21H678l-29 29-29 29v44l85 96 85 96v763l7 6 6 7 611-2 611-3 3-383zM928 1193c13-8 32-28 42-46l20-32v-72l-23-34-22-34-35-17-35-18h-66l-37 19-37 19-17 30-18 30v91l31 36 31 35 32 9 31 10 40-6c22-3 50-11 63-20zm578 16 44-11v-22c0-11-4-27-9-35l-9-14-46 13c-26 7-49 10-52 7-12-11 8-27 46-37l39-10 20-27c35-44 23-91-29-118l-29-15h-66l-42 20c-46 21-49 26-32 64l12 25 36-20c19-10 46-19 58-19h23v29l-41 11-41 11-24 24-24 24v21c0 12 5 30 11 41l11 21 31 13c39 17 56 18 113 4zm314-18c14-10 33-33 43-52l18-34-5-39-5-39-18-26c-11-14-35-34-54-43l-34-18h-67l-39 22-38 21-17 35-16 35 5 44 5 45 28 29 28 30 31 9 30 9 40-5 40-5 25-18zm-1447-93c25-62 49-121 53-130l6-18h-81l-11 20-11 20h-98l-6-20-6-20h-79v10c0 6 23 64 51 130l52 120h83l47-112zm297 82v-30H549l3-22 3-23 53-3 52-3v-59H550v-90h-80v260h200v-30zm486-35 49-66 3 66 3 65h69V950h-69l-48 63-48 62-3-62-3-63h-79v260h76l50-65zm890-1 49-67 3 67 3 66h69V950h-67l-49 62-49 63-3-63-3-62h-79v260h78l48-66zm404 36v-30h-130v-40h120v-60h-120v-39l68-3 67-3v-50h-220l-3 114c-1 63 0 121 2 128l5 13h211v-30zm260 1v-30l-32-3-33-3-3-97-3-98h-79v200h-80v60h230v-29zm125-265 34-14 15-31c18-34 20-69 6-105l-10-26-32-21-33-20-39 5-39 5-31 30-31 31v89l29 30c26 27 44 35 84 40 7 0 28-5 47-13zM850 2010v-350h1130v700h-44l17-12 17-13-2-330-3-330H865l-3 334-2 335 12 8 13 8h-35v-350zm50 5v-305h1030v610H900v-305zm656 210 48-31 30-48 30-48 4-63 4-63-12-37-12-38-37-40-36-40-50-23-50-24h-85l-52 20-51 19-34 33-33 32-20 53-20 54v84l24 50 24 50 33 32c19 17 50 38 69 47l35 15 71-2 71-2 49-30zm-208-22c-2-10-2-26 0-35l3-18h12c7 0 19 5 27 10l15 9-26 27-26 26-5-19zm69-4 21-21 13 7 12 8-18 14c-11 7-26 13-34 13h-15l21-21zm103-3c0-2 15-26 33-53l32-49 18 4c25 5 21 17-19 62-30 33-64 52-64 36zm-228-36-10-25 15-3c22-5 27 5 16 30l-11 23-10-25zm175-2-17-13 21-43 21-43 22 7c11 3 25 10 29 14l9 8-27 41c-30 45-33 47-58 29zm-89-35-18-4v-18c0-10 5-32 11-50l11-32 15 5c8 4 26 9 39 12 29 7 28 4 8 54l-16 40-17-1c-9-1-24-3-33-6zm-91-30c-10-9-8-75 2-91l8-13 27 7 28 7-6 21c-4 11-9 33-12 49l-6 27h-18c-9 0-20-3-23-7zm-66-21c-6-11-11-39-11-61v-40l9-5c5-4 16-3 25 0l15 6-6 51c-3 29-9 56-13 61l-8 8-11-20zm383-64c8-69 10-73 25-63l11 6v119h-43l7-62zm-75 30-27-9 14-46c17-56 15-54 43-46l23 6-6 46c-3 25-10 48-14 52l-7 7-26-10zm-106-40c-27-13-28-18-9-63 17-40 13-38 55-24 36 13 35 10 19 60l-11 39-16-1c-9 0-26-5-38-11zm-100-35c-21-8-15-37 15-71l27-33 20 14 19 15-18 41-19 41-16-1c-9 0-22-3-28-6zm-81-30-12-5 17-30c10-16 30-39 45-49l27-19 5 9 6 10-25 37c-14 20-25 41-25 45 0 10-17 11-38 2zm298-60 1-28 14 19c19 25 19 36 0 36h-15v-27zm-69 6-24-9 23-25c13-14 27-25 32-25h8v70l-7-1c-5 0-19-5-32-10zm-75-38-5-8 26-12c30-14 41-8 23 14-14 16-36 20-44 6zm-645-328-73-85 9-9 9-9 720 2 719 3v12c0 6-31 47-69 92l-69 81-586-1-586-1-74-85zm1353-59c9-3 16-12 16-20v-14H700v14c0 8 6 17 13 19 18 8 1372 8 1391 1zM805 1125l-25-24v-19c0-11 9-31 21-46l20-26h46l16 18 17 19v72l-22 15c-31 22-45 20-73-9zm890 0c-28-27-31-45-14-78 15-28 28-37 55-37h21l18 20 18 20v63l-22 19c-31 24-47 23-76-7zm-1423-35-10-25 15-3c22-5 27 5 16 30l-11 23-10-25zm2463-213-27-23v-36c0-20 4-43 9-50l8-13 5 60 5 60 24 3c12 2 33 1 46-2l23-6 6-16 6-15-10-20-11-19 12-22 12-22 13 19c8 10 14 30 14 43v24l-29 29-29 29h-51l-26-23zm25-37v-10h40v20h-40v-10zm6-51c-3-8-6-23-8-34l-3-20 22-3c12-2 28 0 35 5l13 8-27 29-27 30-5-15z"/></g></g></svg>